<svg width="60" height="60" viewBox="0 0 60 60" fill="none" xmlns="http://www.w3.org/2000/svg">
<path d="M15 38.6029H16.1215V40H35.1869V38.6029H36.3084V32.7353V28.5441V22.3971H35.1869V21H16.1215V22.3971H15V38.6029Z" fill="white"/>
<path d="M36.3084 32.7353H38.5514V33.8529H39.6729V34.9706H40.514V36.0882H41.6355V36.9265H42.757V37.7647H43.5981V38.3235H45V22.3971H43.5981V23.2353H42.757V24.0735H41.6355V25.1912H40.514V26.3088H39.3925V27.4265H38.5514V28.5441H36.3084V32.7353Z" fill="white"/>
<path d="M36.3084 32.7353H38.5514V33.8529H39.6729V34.9706H40.514V36.0882H41.6355V36.9265H42.757V37.7647H43.5981V38.3235H45V22.3971H43.5981V23.2353H42.757V24.0735H41.6355V25.1912H40.514V26.3088H39.3925V27.4265H38.5514V28.5441H36.3084M36.3084 32.7353V38.6029H35.1869V40H16.1215V38.6029H15V22.3971H16.1215V21H35.1869V22.3971H36.3084V28.5441M36.3084 32.7353V28.5441" stroke="black"/>
<path d="M23.2727 28.5294V25H27.7273V28.5294M25.5711 32.0723H24.9348V31.484H26.2075V32.0723H25.5711ZM25.5711 32.0723V33.837M22 29.1176V35H29V29.1176H22Z" stroke="black"/>
</svg>
