<svg width="33" height="33" viewBox="0 0 33 33" fill="none" xmlns="http://www.w3.org/2000/svg">
<path fill-rule="evenodd" clip-rule="evenodd" d="M1 23H3V27.5H5.34825V29.5278L10.3192 29.5262V32H22.5V29.5H27.5V27.5H29.5V23H32V10H29.5V5H27.5V3H23V1H9.5V3H5.5V5.5H3V10H1V23ZM12 25V23H21V25H12Z" fill="#E81919"/>
<path d="M25.5 11.5H22.5V8.5M12.5 22H20.5M7.31918 11.5H10.3192V8.5M8.31918 14.5V16M8.31918 18V19.5M8.31918 21.5V23M24.5 14.5V16M24.5 18V19.5M24.5 21.5V23M1 23H3V27.5H5.34825V29.5278L10.3192 29.5262V32H22.5V29.5H27.5V27.5H29.5V23H32V10H29.5V5H27.5V3H23V1H9.5V3H5.5V5.5H3V10H1V23ZM12 23V25H21V23H12Z" stroke="black" stroke-width="2"/>
</svg>
