<svg width="70" height="70" viewBox="0 0 70 70" fill="none" xmlns="http://www.w3.org/2000/svg">
<path d="M20 44.6029H21.1215V46H40.1869V44.6029H41.3084V38.7353V34.5441V28.3971H40.1869V27H21.1215V28.3971H20V44.6029Z" fill="white"/>
<path d="M41.3084 38.7353H43.5514V39.8529H44.6729V40.9706H45.514V42.0882H46.6355V42.9265H47.757V43.7647H48.5981V44.3235H50V28.3971H48.5981V29.2353H47.757V30.0735H46.6355V31.1912H45.514V32.3088H44.3925V33.4265H43.5514V34.5441H41.3084V38.7353Z" fill="white"/>
<path d="M41.3084 38.7353H43.5514V39.8529H44.6729V40.9706H45.514V42.0882H46.6355V42.9265H47.757V43.7647H48.5981V44.3235H50V28.3971H48.5981V29.2353H47.757V30.0735H46.6355V31.1912H45.514V32.3088H44.3925V33.4265H43.5514V34.5441H41.3084M41.3084 38.7353V44.6029H40.1869V46H21.1215V44.6029H20V28.3971H21.1215V27H40.1869V28.3971H41.3084V34.5441M41.3084 38.7353V34.5441" stroke="black"/>
<path d="M35 4V5.46341H36.4118V6.56098H37.4706V7.65854H38.5294V9.12195H39.5882V10.2195H41V12.7805H37.1176V19H32.5294V12.7805L29 12.7805V10.2195H30.4118V9.12195H31.4706V7.65854L32.5294 7.65854V6.56098H33.5882V5.46341L34.2941 5.46341V4H35Z" fill="white" stroke="black"/>
<path d="M35 67V65.5366H33.5882V64.439H32.5294V63.3415H31.4706V61.878H30.4118V60.7805H29L29 58.2195H32.8824V52H37.4706V58.2195H41V60.7805H39.5882V61.878H38.5294V63.3415H37.4706V64.439H36.4118V65.5366H35.7059V67H35Z" fill="white" stroke="black"/>
</svg>
