<svg width="71" height="70" viewBox="0 0 71 70" fill="none" xmlns="http://www.w3.org/2000/svg">
<path d="M21 43.6029H22.1215V45H41.1869V43.6029H42.3084V37.7353V33.5441V27.397H41.1869V26H22.1215V27.397H21V43.6029Z" fill="white"/>
<path d="M42.3084 37.7353H44.5514V38.8529H45.6729V39.9706H46.514V41.0882H47.6355V41.9265H48.757V42.7647H49.5981V43.3235H51V27.397H49.5981V28.2353H48.757V29.0735H47.6355V30.1912H46.514V31.3088H45.3925V32.4265H44.5514V33.5441H42.3084V37.7353Z" fill="white"/>
<path d="M42.3084 37.7353H44.5514V38.8529H45.6729V39.9706H46.514V41.0882H47.6355V41.9265H48.757V42.7647H49.5981V43.3235H51V27.397H49.5981V28.2353H48.757V29.0735H47.6355V30.1912H46.514V31.3088H45.3925V32.4265H44.5514V33.5441H42.3084M42.3084 37.7353V43.6029H41.1869V45H22.1215V43.6029H21V27.397H22.1215V26H41.1869V27.397H42.3084V33.5441M42.3084 37.7353V33.5441" stroke="black"/>
<path d="M1 35H2.46341V33.5882H3.56098V32.5294H4.65854V31.4706H6.12195V30.4118H7.21951V29H9.78049V32.8823H16V37.4706H9.78049V41H7.21951V39.5882H6.12195V38.5294H4.65854V37.4706H3.56098V36.4118H2.46341V35.7059H1V35Z" fill="white" stroke="black"/>
<path d="M70 35H68.5366V36.4118H67.439V37.4706H66.3415V38.5294H64.878V39.5882H63.7805V41H61.2195V37.1176H55V32.5294H61.2195V29H63.7805V30.4118H64.878V31.4706L66.3415 31.4706V32.5294H67.439V33.5882H68.5366V34.2941H70V35Z" fill="white" stroke="black"/>
</svg>
